<?xml version="1.0" standalone="no"?>
<!DOCTYPE svg PUBLIC "-//W3C//DTD SVG 1.1//EN" "http://www.w3.org/Graphics/SVG/1.1/DTD/svg11.dtd" >
<svg xmlns="http://www.w3.org/2000/svg">
<metadata></metadata>
<defs>
<font id="KenyanCoffeeRgBold" horiz-adv-x="872" >
<font-face units-per-em="2048" ascent="1735" descent="-313" />
<missing-glyph horiz-adv-x="364" />
<glyph unicode="&#x28;C&#x29;" horiz-adv-x="1314" d="M66 373v872q0 67 5 116.5t19.5 91t34.5 69t55.5 49.5t76.5 34t103.5 20t130.5 10.5t164 2.5q130 0 213 -5t155 -20.5t111 -41t67.5 -71t38 -106t9.5 -149.5v-872q0 -67 -5 -116.5t-19.5 -91t-34.5 -69t-56 -49.5t-77 -34t-104.5 -20t-132 -10.5t-165.5 -2.5t-165.5 2.5 t-131.5 10.5t-103.5 20t-76 34t-55 49.5t-33.5 69t-19 91t-5 116.5zM303 379q0 -43 3.5 -68.5t16.5 -50.5t35.5 -37.5t62.5 -23t96 -14t138 -3.5q83 0 139.5 3.5t97 13.5t63.5 23t36 37.5t17 51t4 68.5v866q0 50 -6.5 79t-25.5 54.5t-59.5 38t-104 19t-161.5 6.5 t-160.5 -6.5t-102 -19t-58.5 -38t-25 -54.5t-6 -79v-866zM455 580v485q0 59 7 90.5t33 50t62 23t107 4.5q54 0 84.5 -3t55.5 -12t36 -28.5t16.5 -48.5t5.5 -76v-141h-166v100q0 33 -32 33q-33 0 -33 -33v-406q0 -30 33 -30q32 0 32 30v181h166v-219q0 -60 -7 -92.5 t-31.5 -51t-58.5 -23.5t-101 -5q-47 0 -76 2t-55 8.5t-39 17.5t-23 31t-13 46.5t-3 66.5z" />
<glyph unicode="&#x28;R&#x29;" horiz-adv-x="1314" d="M66 373v872q0 67 5 116.5t19.5 91t34.5 69t55.5 49.5t76.5 34t103.5 20t130.5 10.5t164 2.5q130 0 213 -5t155 -20.5t111 -41t67.5 -71t38 -106t9.5 -149.5v-872q0 -67 -5 -116.5t-19.5 -91t-34.5 -69t-56 -49.5t-77 -34t-104.5 -20t-132 -10.5t-165.5 -2.5t-165.5 2.5 t-131.5 10.5t-103.5 20t-76 34t-55 49.5t-33.5 69t-19 91t-5 116.5zM303 379q0 -43 3.5 -68.5t16.5 -50.5t35.5 -37.5t62.5 -23t96 -14t138 -3.5q83 0 139.5 3.5t97 13.5t63.5 23t36 37.5t17 51t4 68.5v866q0 50 -6.5 79t-25.5 54.5t-59.5 38t-104 19t-161.5 6.5 t-160.5 -6.5t-102 -19t-58.5 -38t-25 -54.5t-6 -79v-866zM434 391v883h225q76 0 117 -6.5t68.5 -29.5t36 -60.5t8.5 -106.5v-102q0 -120 -86 -135v-5q41 -8 63.5 -45.5t22.5 -124.5v-268h-197v332q0 18 -4 23.5t-20 5.5h-39v-361h-195zM629 909h39q17 0 20.5 4.5t3.5 22.5 v135q0 18 -4 23.5t-20 5.5h-39v-191z" />
<glyph horiz-adv-x="0" />
<glyph horiz-adv-x="2048" />
<glyph horiz-adv-x="364" />
<glyph unicode=" "  horiz-adv-x="364" />
<glyph unicode="&#x09;" horiz-adv-x="364" />
<glyph unicode="&#xa0;" horiz-adv-x="364" />
<glyph unicode="!" horiz-adv-x="446" d="M55 1618h334l-51 -1231h-229zM74 0v289h297v-289h-297z" />
<glyph unicode="&#x22;" horiz-adv-x="712" d="M55 1618h252l-43 -582h-168zM412 1618h252l-43 -582h-168z" />
<glyph unicode="#" horiz-adv-x="964" d="M37 420l37 285h112l25 204h-131l35 283h133l55 426h201l-55 -426h163l54 426h200l-53 -426h113l-37 -283h-113l-24 -204h131l-33 -285h-135l-56 -420h-200l55 420h-162l-55 -420h-199l52 420h-113zM387 705h162l26 204h-161z" />
<glyph unicode="$" d="M66 1139v159q0 98 10 157t38 99t73.5 57t121.5 23v125h256v-125q141 -12 188.5 -80t47.5 -256v-204h-326v204q0 27 -7 36t-32 9t-32 -9t-7 -36v-165q0 -38 14.5 -59.5t63.5 -49.5q91 -52 136 -79t90 -63t61 -57t30 -62t15.5 -76.5t1.5 -102.5v-262q0 -99 -10 -158.5 t-38.5 -99.5t-74 -57t-121.5 -23v-125h-256v125q-140 12 -187.5 80.5t-47.5 257.5v321h323v-321q0 -28 7 -37t32 -9t32 9t7 37v290q0 29 -12 46.5t-47 37.5q-70 39 -108.5 61t-82 50.5t-63 44.5t-42 43t-30 46t-15 52.5t-8.5 65t-1 80.5z" />
<glyph unicode="%" horiz-adv-x="1601" d="M80 907v531q0 66 8.5 102t37.5 57.5t71.5 27t124.5 5.5q56 0 90.5 -2t64.5 -10t45.5 -20t26.5 -35t14.5 -51.5t3.5 -73.5v-531q0 -67 -8 -103t-37.5 -58t-73 -27.5t-126.5 -5.5q-55 0 -89 2t-63.5 10t-45 20.5t-26.5 35t-14.5 52t-3.5 74.5zM301 907q0 -16 21 -16 q15 0 19.5 3.5t4.5 12.5v531q0 9 -4.5 12.5t-19.5 3.5q-21 0 -21 -16v-531zM342 0l698 1618h222l-701 -1618h-219zM1032 182v531q0 66 8.5 102t37.5 57.5t71.5 27t124.5 5.5q83 0 126.5 -5.5t73 -27t38 -57t8.5 -102.5v-531q0 -54 -6.5 -86.5t-20 -55.5t-44 -33.5 t-69.5 -14.5t-106 -4q-55 0 -89 2t-63.5 10t-45 20.5t-26.5 35t-14.5 52t-3.5 74.5zM1253 182q0 -16 21 -16q15 0 19.5 3.5t4.5 12.5v531q0 9 -4.5 12.5t-19.5 3.5q-21 0 -21 -16v-531z" />
<glyph unicode="&#x26;" horiz-adv-x="868" d="M66 332v327q0 98 19 158.5t47.5 85t72.5 35.5v8q-24 4 -45.5 15.5t-44 34.5t-36 67t-13.5 104v121q0 75 5.5 125t22.5 88.5t41 60t69 35t97.5 17.5t134.5 4h39v-285h-39q-25 0 -32 -9t-7 -36v-176q0 -26 7 -34.5t32 -8.5h39v193h307v-193h72v-260h-72v-809h-346 q-82 0 -134.5 4t-97 18t-69 35.5t-41.5 60.5t-22.5 89t-5.5 125zM397 332q0 -27 7 -36t32 -9h39v522h-39q-25 0 -32 -9t-7 -36v-432z" />
<glyph unicode="'" horiz-adv-x="362" d="M55 1618h252l-43 -582h-168z" />
<glyph unicode="(" horiz-adv-x="542" d="M123 -10v1523q0 106 14 172.5t51.5 112.5t103 65t169.5 19h41v-207h-41q-66 0 -85.5 -32t-19.5 -130v-1523q0 -98 19.5 -130t85.5 -32h41v-207h-41q-104 0 -169.5 19t-103 65t-51.5 112.5t-14 172.5z" />
<glyph unicode=")" horiz-adv-x="542" d="M41 -172h41q66 0 85 32t19 130v1523q0 98 -19 130t-85 32h-41v207h41q104 0 169.5 -19t103 -65t51.5 -112.5t14 -172.5v-1523q0 -106 -14 -172.5t-51.5 -112.5t-103 -65t-169.5 -19h-41v207z" />
<glyph unicode="*" horiz-adv-x="917" d="M82 954l37 133l217 95l-217 98l-37 131l127 35l188 -152l-30 248l92 96l92 -96l-29 -248l189 152l127 -35l-37 -131l-217 -98l217 -95l37 -133l-127 -34l-189 149l29 -244l-92 -100l-92 100l30 244l-188 -149z" />
<glyph unicode="+" horiz-adv-x="1083" d="M82 690v258h330v330h258v-330h331v-258h-331v-332h-258v332h-330z" />
<glyph unicode="," horiz-adv-x="460" d="M82 0v289h297v-281q0 -127 -61.5 -190.5t-211.5 -63.5h-24v131h37q41 0 64.5 26.5t23.5 78.5v10h-125z" />
<glyph unicode="-" horiz-adv-x="436" d="M35 553v258h366v-258h-366z" />
<glyph unicode="." horiz-adv-x="460" d="M82 0v289h297v-289h-297z" />
<glyph unicode="/" horiz-adv-x="612" d="M0 -147l371 1916h241l-372 -1916h-240z" />
<glyph unicode="0" d="M66 322v976q0 78 5.5 129.5t22.5 91.5t41 61.5t69 35.5t97.5 18t134.5 4t134.5 -4t98 -18t69.5 -36t41.5 -61.5t23.5 -91t6 -129.5v-976q0 -78 -6 -130t-23.5 -92t-41.5 -62t-69.5 -36t-98 -18t-134.5 -4t-134.5 4t-97.5 18t-69 36t-41 62t-22.5 92t-5.5 130zM397 322 q0 -28 7 -37t32 -9t32 9t7 37v976q0 27 -7 36t-32 9t-32 -9t-7 -36v-976z" />
<glyph unicode="1" horiz-adv-x="563" d="M29 1333v285h452v-1618h-334v1333h-118z" />
<glyph unicode="2" horiz-adv-x="901" d="M78 0v604q0 81 5.5 127.5t26.5 83t48.5 58.5t83.5 55l184 108q34 19 48.5 39.5t14.5 57.5v165q0 28 -6.5 36.5t-31.5 8.5t-32 -9t-7 -36v-200h-324v200q0 78 5.5 129.5t22.5 91.5t41 61.5t68.5 35.5t97 18t134.5 4t134 -4t96.5 -18t68 -35.5t40.5 -61.5t22 -91.5 t5 -129.5v-182q0 -137 -32 -197.5t-134 -117.5l-206 -119q-21 -11 -30 -25.5t-9 -44.5v-315h75v330h336v-627h-745z" />
<glyph unicode="3" horiz-adv-x="854" d="M59 322v309h318v-309q0 -28 7 -37t32 -9t32 9t7 37v360q0 27 -7 36t-32 9h-148v301h148q25 0 32 9t7 36v225q0 27 -7 36t-32 9t-32 -9t-7 -36v-188h-318v188q0 77 5.5 129t22.5 91.5t40.5 61.5t67 36t93.5 18t128 4q82 0 134.5 -4t97.5 -17.5t69.5 -35t42 -60t23 -88 t5.5 -124.5v-205q0 -195 -141 -221v-9q33 -7 56.5 -22t43.5 -45t30.5 -82.5t10.5 -126.5v-287q0 -75 -5.5 -125t-23 -89t-42 -60.5t-69.5 -35t-97.5 -17.5t-134.5 -4q-78 0 -128 4t-93.5 18t-67 36t-40.5 62t-22.5 92t-5.5 130z" />
<glyph unicode="4" horiz-adv-x="919" d="M72 434l6 1194h303l-6 -911h78v655h340v-655h86v-283h-86v-434h-340v434h-381z" />
<glyph unicode="5" horiz-adv-x="878" d="M78 322v288h317v-288q0 -28 7 -37t32 -9t32 9t7 37v323q0 65 -19 89t-75 24h-301l8 860h721v-543h-334v297h-78v-375h131q105 0 164.5 -37t88 -126.5t28.5 -249.5v-262q0 -78 -6 -130t-23.5 -92t-41.5 -62t-69.5 -36t-98 -18t-134.5 -4q-78 0 -128 4t-93 18t-66.5 36 t-40.5 62t-22.5 92t-5.5 130z" />
<glyph unicode="6" d="M66 322v976q0 78 5.5 129.5t22.5 91.5t41 61.5t69 35.5t97.5 18t134.5 4q78 0 128 -4t93.5 -18t67.5 -36t41 -61.5t23 -91.5t6 -129v-161h-320v161q0 27 -7 36t-32 9t-32 -9t-7 -36v-405q38 65 176 65q75 0 120.5 -16.5t71.5 -59.5t35 -104t9 -162v-294q0 -78 -6 -130 t-23.5 -92t-41.5 -62t-69.5 -36t-98 -18t-134.5 -4t-134.5 4t-97.5 18t-69 36t-41 62t-22.5 92t-5.5 130zM397 322q0 -28 7 -37t32 -9t32 9t7 37v335q0 27 -7 36t-32 9t-32 -9t-7 -36v-335z" />
<glyph unicode="7" horiz-adv-x="720" d="M47 1343v275h621v-268l-273 -1350h-344l275 1343h-279z" />
<glyph unicode="8" horiz-adv-x="876" d="M66 311v287q0 74 10.5 126.5t30.5 82.5t43.5 45t56.5 22v9q-141 26 -141 221v205q0 75 5.5 124.5t23 88t42 60t69.5 35t97.5 17.5t134.5 4t135 -4t98 -17.5t69.5 -35t41.5 -60t23 -88.5t6 -124v-205q0 -195 -141 -221v-9q33 -7 56.5 -22t43.5 -45t30.5 -82.5t10.5 -126.5 v-287q0 -64 -5 -109.5t-15 -82.5t-30.5 -60t-46.5 -39.5t-68.5 -24.5t-90 -11.5t-117.5 -3.5q-82 0 -134.5 4t-97.5 17.5t-69.5 35t-42 60.5t-23 89t-5.5 125zM399 322q0 -28 7 -37t32 -9t32 9t7 37v380q0 28 -7 37t-32 9t-32 -9t-7 -37v-380zM399 1053q0 -27 7 -36t32 -9 t32 9t7 36v245q0 27 -7 36t-32 9t-32 -9t-7 -36v-245z" />
<glyph unicode="9" d="M66 954v344q0 78 5.5 129.5t22.5 91.5t41 61.5t69 35.5t97.5 18t134.5 4t134.5 -4t98 -18t69.5 -36t41.5 -61.5t23.5 -91t6 -129.5v-976q0 -78 -6 -130t-23.5 -92t-41.5 -62t-69.5 -36t-98 -18t-134.5 -4q-78 0 -128 4t-93 18t-66.5 36t-40.5 62t-22.5 92t-5.5 130v122 h317v-122q0 -28 7 -37t32 -9t32 9t7 37v356q-38 -66 -174 -66q-73 0 -118 16.5t-71.5 59t-36 104t-9.5 162.5zM397 913q0 -27 7 -36t32 -9t32 9t7 36v385q0 27 -7 36t-32 9t-32 -9t-7 -36v-385z" />
<glyph unicode=":" horiz-adv-x="460" d="M82 0v289h297v-289h-297zM82 813v289h297v-289h-297z" />
<glyph unicode=";" horiz-adv-x="460" d="M82 0v289h297v-281q0 -127 -61.5 -190.5t-211.5 -63.5h-24v131h37q41 0 64.5 26.5t23.5 78.5v10h-125zM82 813v289h297v-289h-297z" />
<glyph unicode="&#x3c;" horiz-adv-x="1083" d="M82 682v274l919 318v-258l-614 -197l614 -196v-256z" />
<glyph unicode="=" horiz-adv-x="1083" d="M82 467v258h919v-258h-919zM82 913v258h919v-258h-919z" />
<glyph unicode="&#x3e;" horiz-adv-x="1083" d="M82 367v256l614 196l-614 197v258l919 -318v-274z" />
<glyph unicode="?" horiz-adv-x="841" d="M51 1094v204q0 77 6 129t23 91.5t41 61.5t68 36t95 18t130 4q82 0 134.5 -4t98 -18t69.5 -35.5t41.5 -61.5t23 -91.5t5.5 -129.5v-163q0 -93 -14 -144.5t-59 -124.5l-150 -248q-15 -24 -20.5 -43t-5.5 -55v-133h-281v172q0 98 13 153.5t55 121.5l100 155q29 42 29 101 v208q0 27 -7 36t-32 9t-32 -9t-7 -36v-204h-324zM252 0v289h299v-289h-299z" />
<glyph unicode="@" horiz-adv-x="921" d="M66 94v977q0 78 6 129.5t24 91.5t43.5 61.5t73.5 35.5t104 18t144 4t144 -4t104 -18t73.5 -35.5t43.5 -61.5t24 -91.5t6 -129.5v-799h-184v37q-31 -45 -129 -45q-93 0 -121.5 35t-28.5 135v324q0 100 28.5 135t119.5 35q96 0 116 -45v223q0 44 -11 63.5t-51.5 30 t-127.5 10.5t-129 -10t-55 -30.5t-13 -63.5v-1045q0 -44 13 -64.5t54.5 -30t129.5 -9.5t127.5 10t51 29.5t11.5 64.5v66h199v-33q0 -78 -6 -130t-24 -92t-43.5 -62t-73.5 -36t-104 -18t-144 -4t-144 4t-104 18t-73.5 36t-43.5 62t-24 92t-6 130zM582 469q0 -28 6 -36.5 t30 -8.5q26 0 39 29v274q-13 29 -39 29q-24 0 -30 -8.5t-6 -36.5v-242z" />
<glyph unicode="A" horiz-adv-x="870" d="M70 0v1298q0 77 6 129t23 91.5t41 61.5t68 36t95 18t131 4t131 -4t96 -17.5t69.5 -36t42.5 -62t24 -91.5t6 -129v-1298h-334v322h-78v-322h-321zM391 594h78v704q0 27 -7 36t-32 9t-32 -9t-7 -36v-704z" />
<glyph unicode="B" horiz-adv-x="884" d="M82 0v1618h371q82 0 134.5 -4t97.5 -17.5t69.5 -35t42 -60t23 -88.5t5.5 -125v-121q0 -195 -141 -221v-8q44 -11 73 -35.5t48.5 -85t19.5 -158.5v-327q0 -75 -5.5 -125t-23 -89t-42 -60.5t-69 -35.5t-97.5 -18t-135 -4h-371zM414 287h39q25 0 32 9t7 36v432q0 27 -7 36 t-32 9h-39v-522zM414 1069h39q25 0 32 8.5t7 34.5v176q0 27 -7 36t-32 9h-39v-264z" />
<glyph unicode="C" horiz-adv-x="858" d="M66 322v976q0 78 5.5 129.5t22.5 91.5t41 61.5t69 35.5t97.5 18t134.5 4q78 0 128 -4t93.5 -18t67.5 -36t41 -61.5t23 -91.5t6 -129v-366h-320v366q0 27 -7 36t-32 9t-32 -9t-7 -36v-976q0 -28 7 -37t32 -9t32 9t7 37v374h320v-374q0 -78 -6 -130.5t-23 -92t-41 -61.5 t-67.5 -36t-93.5 -18t-128 -4q-82 0 -134.5 4t-97.5 18t-69 36t-41 62t-22.5 92t-5.5 130z" />
<glyph unicode="D" horiz-adv-x="888" d="M82 0v1618h371q82 0 134.5 -4t97.5 -17.5t69.5 -35t42 -60t23 -88.5t5.5 -125v-956q0 -75 -5.5 -125t-23 -89t-42 -60.5t-69 -35.5t-97.5 -18t-135 -4h-371zM414 287h39q25 0 32 9t7 36v956q0 27 -7 36t-32 9h-39v-1046z" />
<glyph unicode="E" horiz-adv-x="630" d="M82 0v1618h508v-272h-176v-119h168v-262h-168v-680h178v-285h-510z" />
<glyph unicode="F" horiz-adv-x="618" d="M82 0v1618h518v-272h-186v-119h178v-273h-178v-954h-332z" />
<glyph unicode="G" horiz-adv-x="866" d="M66 322v976q0 78 5.5 129.5t22.5 91.5t41 61.5t69 35.5t97.5 18t134.5 4q78 0 128 -4t93.5 -18t67.5 -36t41 -61.5t23 -91.5t6 -129v-147h-320v147q0 27 -7 36t-32 9t-32 -9t-7 -36v-976q0 -28 7 -37t32 -9q30 0 45 5v659h314v-940q-107 -20 -359 -20q-80 0 -134.5 5.5 t-97.5 21t-68.5 39t-41.5 63.5t-22 90t-6 123z" />
<glyph unicode="H" horiz-adv-x="909" d="M82 0v1618h332v-496h82v496h333v-1618h-333v844h-82v-844h-332z" />
<glyph unicode="I" horiz-adv-x="503" d="M86 0v1618h332v-1618h-332z" />
<glyph unicode="J" horiz-adv-x="813" d="M20 322v374h302v-374q0 -28 6.5 -37t31.5 -9q24 0 30.5 9t6.5 37v1296h334v-1296q0 -78 -5.5 -130t-22.5 -92t-40.5 -62t-67.5 -36t-95 -18t-131 -4q-76 0 -124.5 4t-91 18t-65.5 36t-40 62t-22.5 92t-5.5 130z" />
<glyph unicode="K" horiz-adv-x="890" d="M82 0v1618h336v-569h10q28 245 86 569h334q-113 -563 -139 -672q36 -154 174 -946h-342q-56 332 -113 799h-10v-799h-336z" />
<glyph unicode="L" horiz-adv-x="624" d="M82 0v1618h332v-1331h192v-287h-524z" />
<glyph unicode="M" horiz-adv-x="1173" d="M82 0v1618h438q46 -530 64 -881h8q24 460 63 881h439v-1618h-260v993h-9l-100 -993h-272l-103 1004h-8v-1004h-260z" />
<glyph unicode="N" horiz-adv-x="942" d="M82 0v1618h356l137 -819h9v819h276v-1618h-344l-151 780h-9v-780h-274z" />
<glyph unicode="O" d="M66 322v976q0 78 5.5 129.5t22.5 91.5t41 61.5t69 35.5t97.5 18t134.5 4t134.5 -4t98 -18t69.5 -36t41.5 -61.5t23.5 -91t6 -129.5v-976q0 -78 -6 -130t-23.5 -92t-41.5 -62t-69.5 -36t-98 -18t-134.5 -4t-134.5 4t-97.5 18t-69 36t-41 62t-22.5 92t-5.5 130zM397 322 q0 -28 7 -37t32 -9t32 9t7 37v976q0 27 -7 36t-32 9t-32 -9t-7 -36v-976z" />
<glyph unicode="P" horiz-adv-x="864" d="M82 0v1618h371q82 0 134.5 -4t97.5 -17.5t69.5 -35t42 -60t23 -88.5t5.5 -125v-346q0 -75 -5.5 -125t-23 -88.5t-42 -60t-69.5 -35t-97.5 -17.5t-134.5 -4h-39v-612h-332zM414 881h39q25 0 32 9t7 36v362q0 27 -7 36t-32 9h-39v-452z" />
<glyph unicode="Q" d="M66 322v976q0 78 5.5 129.5t22.5 91.5t41 61.5t69 35.5t97.5 18t134.5 4t134.5 -4t98 -18t69.5 -36t41.5 -61.5t23.5 -91t6 -129.5v-976q0 -129 -25.5 -193t-93.5 -88l119 -197h-285l-88 174q-83 0 -134.5 3t-97.5 15t-69 31t-40.5 54.5t-23 82.5t-5.5 118zM397 322 q0 -28 7 -37t32 -9t32 9t7 37v976q0 27 -7 36t-32 9t-32 -9t-7 -36v-976z" />
<glyph unicode="R" horiz-adv-x="892" d="M82 0v1618h371q82 0 134.5 -4t97.5 -17.5t69.5 -35t42 -60t23 -88.5t5.5 -125v-168q0 -195 -141 -221v-8q33 -8 56.5 -23.5t43.5 -45.5t30.5 -82.5t10.5 -127.5v-612h-333v717q0 27 -7 36t-32 9h-39v-762h-332zM414 1022h39q25 0 32 9t7 36v221q0 27 -7 36t-32 9h-39 v-311z" />
<glyph unicode="S" horiz-adv-x="864" d="M61 1139v159q0 78 5.5 129.5t23 91.5t41.5 61.5t69 35.5t97.5 18t134.5 4q80 0 131 -4t95 -18t68 -36t41.5 -61.5t23.5 -91.5t6 -129v-204h-326v204q0 27 -7 36t-32 9t-32 -9t-7 -36v-165q0 -38 14.5 -59.5t63.5 -49.5q91 -52 136 -79t90 -63t61 -57t30 -62t15.5 -76.5 t1.5 -102.5v-262q0 -78 -6 -130t-23.5 -92t-41.5 -62t-69.5 -36t-98 -18t-134.5 -4q-78 0 -128.5 4t-94.5 18t-68 36t-41.5 61.5t-23.5 92.5t-6 130v321h323v-321q0 -28 7 -37t32 -9t32 9t7 37v290q0 29 -12 46.5t-47 37.5q-57 32 -89 50t-71.5 42.5t-58.5 38t-44 35 t-34.5 34.5t-22.5 35.5t-16.5 40.5t-8.5 46.5t-5.5 55t-0.5 65.5z" />
<glyph unicode="T" horiz-adv-x="681" d="M16 1343v275h650v-275h-158v-1343h-334v1343h-158z" />
<glyph unicode="U" horiz-adv-x="878" d="M74 322v1296h332v-1296q0 -28 6.5 -37t31.5 -9t32 9t7 37v1296h324v-1296q0 -78 -6 -130.5t-23.5 -92t-42 -61.5t-69 -36t-95.5 -18t-131 -4t-131 4t-95.5 18t-68.5 36t-41.5 62t-23.5 92t-6 130z" />
<glyph unicode="V" horiz-adv-x="837" d="M16 1618h340l52 -1202h8l63 1202h342l-174 -1618h-481z" />
<glyph unicode="W" horiz-adv-x="1298" d="M16 1618h334l35 -1135h8l49 1135h410l35 -1135h8l51 1135h336l-168 -1618h-418l-55 1174h-8l-68 -1174h-424z" />
<glyph unicode="X" horiz-adv-x="841" d="M10 0l144 858l-131 760h339l74 -559l56 559h309l-123 -760l153 -858h-344l-73 692l-74 -692h-330z" />
<glyph unicode="Y" horiz-adv-x="790" d="M4 1618h330l57 -660h8l66 660h321l-229 -1098v-520h-334v520z" />
<glyph unicode="Z" horiz-adv-x="684" d="M29 0v289l284 1054h-250v275h586v-223l-272 -1110h278v-285h-626z" />
<glyph unicode="[" horiz-adv-x="542" d="M141 -379v2261h381v-207h-147v-1847h147v-207h-381z" />
<glyph unicode="\" horiz-adv-x="612" d="M0 1769h240l372 -1916h-241z" />
<glyph unicode="]" horiz-adv-x="542" d="M20 -172h148v1847h-148v207h381v-2261h-381v207z" />
<glyph unicode="^" horiz-adv-x="997" d="M45 698l317 920h273l317 -920h-258l-196 615l-195 -615h-258z" />
<glyph unicode="_" horiz-adv-x="892" d="M-2 -55h899v-258h-899v258z" />
<glyph unicode="`" horiz-adv-x="462" d="M20 1649h316l106 -353h-221z" />
<glyph unicode="a" horiz-adv-x="765" d="M66 217v297q0 113 45 163t155 50h58q57 0 84 -6v233q0 27 -7 36t-32 9q-24 0 -30.5 -9t-6.5 -36v-112h-266v145q0 59 5 99t19 70t34 47t57 27.5t79 13.5t109 3q72 0 117.5 -3t85 -13.5t60 -27.5t35.5 -47.5t20 -69.5t5 -99v-987q-64 -20 -366 -20q-83 0 -128.5 7.5 t-77.5 33.5t-43 71.5t-11 124.5zM332 266q0 -27 6.5 -36t30.5 -9q27 0 39 4v293q-20 4 -39 4q-24 0 -30.5 -9t-6.5 -36v-211z" />
<glyph unicode="b" horiz-adv-x="792" d="M82 0v1618h293v-447q46 66 160 66q62 0 99 -11.5t58 -43t28 -75.5t7 -120v-747q0 -76 -7 -120t-28.5 -75.5t-59.5 -43t-102 -11.5q-133 0 -176 65v-55h-272zM367 281q10 -29 36 -29q25 0 32 9t7 36v633q0 27 -7 36t-32 9q-26 0 -36 -29v-665z" />
<glyph unicode="c" horiz-adv-x="753" d="M66 240v747q0 60 5 99t20 69.5t35.5 47.5t59.5 27.5t84.5 13.5t116.5 3q67 0 110 -3t80 -13.5t57 -27.5t34 -47t19 -70t5 -99v-215h-266v158q0 27 -7 36t-32 9q-24 0 -30.5 -9t-6.5 -36v-633q0 -27 6.5 -36t30.5 -9q25 0 32 9t7 36v281h266v-338q0 -59 -5 -99t-19 -70 t-34 -47t-57 -27.5t-80 -13.5t-110 -3q-71 0 -116.5 3t-84.5 13.5t-59.5 27.5t-35.5 47.5t-20 69.5t-5 99z" />
<glyph unicode="d" horiz-adv-x="792" d="M66 240v747q0 61 4.5 99.5t16 70t33.5 48t55 24.5t83 8q112 0 158 -66v447h295v-1618h-273v55q-24 -35 -66 -50t-110 -15q-64 0 -101.5 11.5t-59 43t-28.5 75.5t-7 120zM350 297q0 -27 6.5 -36t30.5 -9q26 0 39 29v665q-13 29 -39 29q-24 0 -30.5 -9t-6.5 -36v-633z" />
<glyph unicode="e" horiz-adv-x="757" d="M66 240v747q0 60 5 99t20 69.5t35.5 47.5t59.5 27.5t84.5 13.5t116.5 3q67 0 110 -3t80 -13.5t57 -27.5t34 -47t19 -70t5 -99v-469h-342v-244q0 -27 6.5 -36t30.5 -9q25 0 32 9t7 36v144h266v-178q0 -59 -5 -99t-19 -70t-34 -47t-57 -27.5t-80 -13.5t-110 -3 q-71 0 -116.5 3t-84.5 13.5t-59.5 27.5t-35.5 47.5t-20 69.5t-5 99zM350 743h76v203q0 27 -7 36t-32 9q-24 0 -30.5 -9t-6.5 -36v-203z" />
<glyph unicode="f" horiz-adv-x="528" d="M25 991v236h69v131q0 139 74 199.5t254 60.5h86v-217h-49q-38 0 -55 -16.5t-17 -51.5v-106h121v-236h-121v-991h-293v991h-69z" />
<glyph unicode="g" horiz-adv-x="792" d="M66 303v684q0 76 7 120t28.5 75.5t59 43t101.5 11.5q130 0 176 -66v56h273v-1247q0 -152 -73 -222.5t-241 -70.5h-297v243h265q29 0 40 11.5t11 38.5v139q-46 -66 -158 -66q-62 0 -99 11.5t-58 43t-28 75.5t-7 120zM350 360q0 -27 6.5 -36t30.5 -9q26 0 39 29v602 q-13 29 -39 29q-24 0 -30.5 -9t-6.5 -36v-570z" />
<glyph unicode="h" horiz-adv-x="821" d="M82 0v1618h293v-447q46 66 160 66q123 0 168 -53.5t45 -196.5v-987h-295v930q0 27 -7 36t-32 9q-26 0 -39 -29v-946h-293z" />
<glyph unicode="i" horiz-adv-x="462" d="M86 0v1227h291v-1227h-291zM86 1405v213h291v-213h-291z" />
<glyph unicode="j" horiz-adv-x="456" d="M-88 -70h119q28 0 39.5 11t11.5 39v1247h293v-1247q0 -150 -72 -221.5t-231 -71.5h-160v243zM82 1405v213h293v-213h-293z" />
<glyph unicode="k" horiz-adv-x="788" d="M82 0v1618h289v-823h8q25 191 74 432h295q-98 -429 -121 -510q28 -107 151 -717h-303q-42 222 -96 606h-8v-606h-289z" />
<glyph unicode="l" horiz-adv-x="456" d="M82 0v1618h293v-1618h-293z" />
<glyph unicode="m" horiz-adv-x="1191" d="M82 0v1227h272v-56q44 66 176 66q144 0 187 -76q51 76 184 76q126 0 171.5 -53t45.5 -197v-987h-293v930q0 27 -7 36t-32 9t-38 -29v-946h-295v930q0 27 -7 36t-32 9q-26 0 -39 -29v-946h-293z" />
<glyph unicode="n" horiz-adv-x="821" d="M82 0v1227h272v-56q44 66 176 66q126 0 172 -53.5t46 -196.5v-987h-295v930q0 27 -7 36t-32 9q-26 0 -39 -29v-946h-293z" />
<glyph unicode="o" horiz-adv-x="776" d="M66 240v747q0 59 5 99t20 70t36 47t60 27.5t84 13.5t116 3t116.5 -3t85 -13.5t60.5 -27.5t36.5 -47t20.5 -70t5 -99v-747q0 -59 -5 -99t-20.5 -70t-36.5 -47t-60.5 -27.5t-85 -13.5t-116.5 -3t-116 3t-84 13.5t-60 27.5t-36 47t-20 70t-5 99zM350 297q0 -27 6.5 -36 t30.5 -9q25 0 32 9t7 36v633q0 27 -7 36t-32 9q-24 0 -30.5 -9t-6.5 -36v-633z" />
<glyph unicode="p" horiz-adv-x="792" d="M82 -313v1540h272v-56q44 66 176 66q64 0 102 -11.5t59.5 -43t28.5 -75.5t7 -120v-747q0 -61 -4.5 -99.5t-16 -70t-33.5 -48t-55 -24.5t-83 -8q-114 0 -160 65v-368h-293zM367 281q10 -29 36 -29q25 0 32 9t7 36v633q0 27 -7 36t-32 9q-26 0 -36 -29v-665z" />
<glyph unicode="q" horiz-adv-x="792" d="M66 240v747q0 76 7 120t28.5 75.5t59 43t101.5 11.5q130 0 176 -66v56h273v-1540h-295v368q-46 -65 -158 -65q-62 0 -99 11.5t-58 43t-28 75.5t-7 120zM350 297q0 -27 6.5 -36t30.5 -9q26 0 39 29v665q-13 29 -39 29q-24 0 -30.5 -9t-6.5 -36v-633z" />
<glyph unicode="r" horiz-adv-x="733" d="M82 0v1227h272v-56q44 66 176 66q105 0 146 -54t41 -196v-305h-264v248q0 27 -7 36t-32 9q-26 0 -39 -29v-946h-293z" />
<glyph unicode="s" horiz-adv-x="768" d="M61 240v190h285v-133q0 -27 6.5 -36t30.5 -9q25 0 32 9t7 36v102q0 33 -7.5 46.5t-31.5 25.5l-203 111q-74 39 -96.5 83t-22.5 146v176q0 59 5 99t20.5 70t36.5 47t60 27.5t84 13.5t116 3t116.5 -3t85 -13.5t60.5 -27.5t36.5 -47t20.5 -70t5 -99v-115h-285v58q0 27 -7 36 t-32 9q-24 0 -30.5 -9t-6.5 -36v-62q0 -36 7.5 -50.5t33.5 -29.5l221 -122q59 -33 79 -66.5t20 -105.5v-254q0 -59 -5 -99t-20.5 -70t-36.5 -47t-60.5 -27.5t-85 -13.5t-116.5 -3t-116 3t-84 13.5t-60 27.5t-36.5 47t-20.5 70t-5 99z" />
<glyph unicode="t" horiz-adv-x="522" d="M16 991v236h70v372h293v-372h106v-236h-106v-672q0 -37 17 -53t55 -16h32v-250h-69q-180 0 -254 61t-74 199v731h-70z" />
<glyph unicode="u" horiz-adv-x="821" d="M74 240v987h293v-930q0 -27 7 -36t32 -9t38 29v946h295v-1227h-272v55q-46 -65 -176 -65q-125 0 -171 53.5t-46 196.5z" />
<glyph unicode="v" horiz-adv-x="722" d="M8 1227h309l43 -807h7l43 807h305l-133 -1227h-459z" />
<glyph unicode="w" horiz-adv-x="1200" d="M8 1227h314l34 -797h9l43 797h380l35 -797h8l46 797h315l-152 -1227h-397l-49 823h-8l-64 -823h-399z" />
<glyph unicode="x" horiz-adv-x="753" d="M10 0l129 651l-119 576h304l65 -424l51 424h277l-109 -576l135 -651h-307l-65 524l-66 -524h-295z" />
<glyph unicode="y" horiz-adv-x="821" d="M74 303v924h293v-867q0 -27 7 -36t32 -9t38 29v883h295v-1247q0 -151 -75.5 -222t-243.5 -71h-311v243h272q30 0 41.5 11.5t11.5 38.5v139q-46 -66 -166 -66t-157 51.5t-37 198.5z" />
<glyph unicode="z" horiz-adv-x="655" d="M23 0v250l309 739h-269v238h560v-221l-297 -758h303v-248h-606z" />
<glyph unicode="{" horiz-adv-x="581" d="M47 637v192h25q123 0 123 125v559q0 106 14 172.5t52.5 112.5t104 65t169.5 19h26v-207h-26q-66 0 -86.5 -32.5t-20.5 -129.5v-542q0 -173 -96 -238q96 -68 96 -237v-543q0 -97 20.5 -129.5t86.5 -32.5h26v-207h-26q-104 0 -169.5 19t-104 65t-52.5 112.5t-14 172.5v559 q0 125 -123 125h-25z" />
<glyph unicode="|" horiz-adv-x="514" d="M139 -379v2261h234v-2261h-234z" />
<glyph unicode="}" horiz-adv-x="581" d="M20 -209h27q66 0 86.5 32.5t20.5 129.5v543q0 169 96 237q-96 65 -96 238v542q0 97 -20.5 129.5t-86.5 32.5h-27v207h27q104 0 169.5 -19t104 -65t52.5 -112.5t14 -172.5v-559q0 -125 123 -125h25v-192h-25q-123 0 -123 -125v-559q0 -106 -14 -172.5t-52.5 -112.5 t-104 -65t-169.5 -19h-27v207z" />
<glyph unicode="~" horiz-adv-x="1116" d="M82 596v238q5 63 73.5 109t163.5 46q21 0 44 -4t38 -7.5t43.5 -14t37 -14.5t42 -19t37.5 -17q126 -57 207 -57q94 0 146 44.5t87 129.5v-237q-9 -67 -76 -112.5t-161 -45.5q-21 0 -44 3.5t-39.5 7.5t-42.5 14t-37 15t-41 19t-38 17q-129 57 -207 57q-49 0 -86.5 -12.5 t-64.5 -38.5t-44 -52.5t-38 -68.5z" />
<glyph unicode="&#xa1;" horiz-adv-x="446" d="M55 0l51 1231h230l53 -1231h-334zM74 1329v289h297v-289h-297z" />
<glyph unicode="&#xa2;" horiz-adv-x="768" d="M70 406v808q0 137 36.5 190.5t145.5 63.5v191h256v-189q112 -10 150 -62.5t38 -193.5v-260h-266v203q0 27 -7 36t-32 9q-24 0 -30.5 -9t-6.5 -36v-694q0 -27 6.5 -36t30.5 -9q25 0 32 9t7 36v297h266v-354q0 -142 -38 -194.5t-150 -61.5v-191h-256v191q-109 12 -145.5 65 t-36.5 191z" />
<glyph unicode="&#xa3;" horiz-adv-x="860" d="M35 0v274h63v277h-63v237h63v510q0 78 5.5 129.5t22 91.5t40 61.5t67.5 35.5t95 18t131 4q76 0 125 -4t91.5 -18t65.5 -36t40 -61.5t22.5 -91.5t5.5 -129v-401h-301v401q0 27 -7 36t-32 9t-32 -9t-7 -36v-510h330v-237h-330v-277h383v-274h-778z" />
<glyph unicode="&#xa4;" horiz-adv-x="1157" d="M43 416l195 196q-11 43 -11 119v156q0 74 11 117l-193 194l143 145l224 -225q63 8 172 8q96 0 161 -6l224 223l145 -145l-186 -184q16 -44 16 -127v-156q0 -85 -16 -129l186 -186l-145 -144l-224 224q-45 -4 -161 -4q-125 0 -170 6l-228 -226zM397 743q0 -45 11.5 -64.5 t50.5 -29.5t125 -10q87 0 126.5 10t51.5 29.5t12 64.5v134q0 44 -11.5 63.5t-52 30t-126.5 10.5q-65 0 -101.5 -4.5t-56 -18t-24.5 -31t-5 -50.5v-134z" />
<glyph unicode="&#xa5;" horiz-adv-x="864" d="M41 1618h324l63 -571h8l62 571h325l-198 -889h159v-182h-174v-135h174v-183h-174v-229h-350v229h-199v183h199v135h-199v182h183z" />
<glyph unicode="&#xa6;" horiz-adv-x="514" d="M139 -379v903h234v-903h-234zM139 1079v803h234v-803h-234z" />
<glyph unicode="&#xa7;" horiz-adv-x="768" d="M61 80v190h285v-135q0 -26 6.5 -34.5t30.5 -8.5q25 0 32 8.5t7 34.5v105q0 34 -7.5 46t-31.5 25l-203 109q-69 39 -94 82t-25 129v196q0 148 43 199q-27 27 -35 63.5t-8 112.5v176q0 59 5 99t20.5 70t36.5 47t60 27.5t84 13.5t116 3t116.5 -3t85 -13.5t60.5 -27.5 t36.5 -47t20.5 -70t5 -99v-112h-285v57q0 26 -7 34.5t-32 8.5q-24 0 -30.5 -8.5t-6.5 -34.5v-61q0 -37 7 -51t34 -31l221 -121q60 -34 79.5 -68t19.5 -106v-254q0 -125 -31 -178q31 -39 31 -119v-254q0 -59 -5 -99t-20.5 -70t-36.5 -47t-60.5 -27.5t-85 -13.5t-116.5 -3 t-116 3t-84 13.5t-60 27.5t-36.5 47t-20.5 70t-5 99zM346 676q0 -29 5.5 -37t31.5 -8q25 0 32 9t7 36v106q0 27 -7 36t-32 9q-24 0 -30.5 -9t-6.5 -36v-106z" />
<glyph unicode="&#xa8;" horiz-adv-x="868" d="M86 1405v213h291v-213h-291zM492 1405v213h292v-213h-292z" />
<glyph unicode="&#xaa;" horiz-adv-x="579" d="M78 934v162q0 66 29 94.5t104 28.5h37q26 0 51 -5v119q0 11 -3.5 14t-16.5 3t-17 -3t-4 -14v-67h-180v86q0 98 36 123.5t165 25.5q137 0 176 -25.5t39 -123.5v-543q-52 -12 -246 -12q-105 0 -137.5 25.5t-32.5 111.5zM258 961q0 -10 4 -13.5t17 -3.5h20v146q-6 2 -20 2 q-13 0 -17 -3.5t-4 -13.5v-114z" />
<glyph unicode="&#xab;" horiz-adv-x="987" d="M70 629v248l352 204v-202l-191 -125l191 -127v-201zM563 629v248l352 204v-202l-190 -125l190 -127v-201z" />
<glyph unicode="&#xac;" horiz-adv-x="1083" d="M82 690v258h919v-948h-258v690h-661z" />
<glyph unicode="&#xad;" horiz-adv-x="436" d="M35 553v258h366v-258h-366z" />
<glyph unicode="&#xaf;" horiz-adv-x="829" d="M86 1425v172h657v-172h-657z" />
<glyph unicode="&#xb0;" horiz-adv-x="724" d="M37 1294q0 143 93.5 243.5t234.5 100.5q136 0 229.5 -101t93.5 -243q0 -141 -94 -241.5t-229 -100.5q-139 0 -233.5 100.5t-94.5 241.5zM188 1294q0 -74 51.5 -127t125.5 -53q69 0 119.5 53.5t50.5 126.5t-50 127t-120 54q-74 0 -125.5 -54t-51.5 -127z" />
<glyph unicode="&#xb1;" horiz-adv-x="1083" d="M82 0v258h919v-258h-919zM82 690v258h330v330h258v-330h331v-258h-331v-332h-258v332h-330z" />
<glyph unicode="&#xb2;" horiz-adv-x="667" d="M86 725v336q0 88 19.5 119.5t89.5 64.5l118 58q21 10 30 19.5t9 25.5v90q0 10 -3.5 13t-16.5 3t-17 -3.5t-4 -12.5v-88h-219v88q0 67 8.5 102.5t38 57t73 27t126.5 5.5q82 0 124 -5.5t71 -27t37 -57t8 -102.5v-99q0 -78 -21 -113t-88 -67l-135 -63q-23 -10 -23 -31v-162 h41v150h226v-328h-492z" />
<glyph unicode="&#xb3;" horiz-adv-x="636" d="M74 907v160h213v-160q0 -10 4 -13t18 -3q13 0 17 3.5t4 12.5v197q0 9 -4 11.5t-17 2.5h-100v180h100q13 0 17 3.5t4 13.5v123q0 9 -4 12.5t-17 3.5q-14 0 -18 -3t-4 -13v-88h-213v88q0 66 8.5 102t37.5 57.5t70 27t119 5.5q82 0 126 -6t73 -27.5t38 -56.5t9 -98v-111 q0 -97 -70 -121q70 -27 70 -151v-156q0 -64 -9 -99.5t-38 -57t-73 -27.5t-126 -6q-52 0 -85 2.5t-61.5 10t-43.5 20t-26.5 35t-15 52t-3.5 74.5z" />
<glyph unicode="&#xb4;" horiz-adv-x="462" d="M20 1296l107 353h315l-200 -353h-222z" />
<glyph unicode="&#xb6;" horiz-adv-x="1290" d="M59 942v346q0 75 5.5 125t23 88.5t41.5 60t69 35t97.5 17.5t134.5 4h776v-1931h-334v1656h-69v-1656h-334v925h-39q-82 0 -134.5 4t-97.5 17.5t-69 35t-41.5 60t-23 88.5t-5.5 125zM391 926q0 -27 7 -36t32 -9h39v452h-39q-25 0 -32 -9t-7 -36v-362z" />
<glyph unicode="&#xb7;" horiz-adv-x="460" d="M82 676v289h297v-289h-297z" />
<glyph unicode="&#xb8;" horiz-adv-x="415" d="M16 -379l88 338h293l-180 -338h-201z" />
<glyph unicode="&#xb9;" horiz-adv-x="444" d="M53 1448v172h301v-895h-223v723h-78z" />
<glyph unicode="&#xba;" horiz-adv-x="585" d="M78 946v406q0 98 39 123.5t174 25.5q136 0 175.5 -26t39.5 -123v-406q0 -95 -40.5 -122t-174.5 -27t-173.5 27t-39.5 122zM270 979q0 -10 3.5 -13t17.5 -3q13 0 16.5 2.5t3.5 13.5v342q0 10 -3.5 13t-16.5 3t-17 -3.5t-4 -12.5v-342z" />
<glyph unicode="&#xbb;" horiz-adv-x="987" d="M72 426v201l190 127l-190 125v202l352 -204v-248zM565 426v201l191 127l-191 125v202l353 -204v-248z" />
<glyph unicode="&#xbc;" horiz-adv-x="1427" d="M53 1448v172h301v-895h-223v723h-78zM137 0l699 1618h221l-701 -1618h-219zM834 236v663h200v-493h43v356h230v-356h55v-170h-55v-236h-230v236h-243z" />
<glyph unicode="&#xbd;" horiz-adv-x="1415" d="M53 1448v172h301v-895h-223v723h-78zM137 0l699 1618h221l-701 -1618h-219zM834 0v336q0 88 19 119.5t89 64.5l119 58q21 10 30 19.5t9 25.5v90q0 9 -4 12.5t-17 3.5t-16.5 -3t-3.5 -13v-88h-219v88q0 45 3.5 73.5t14.5 51.5t26.5 35t45.5 20t64.5 10t90.5 2 q82 0 124 -5.5t71 -27t37 -57t8 -102.5v-99q0 -79 -20.5 -113.5t-87.5 -66.5l-136 -63q-22 -9 -22 -31v-162h41v150h225v-328h-491z" />
<glyph unicode="&#xbe;" horiz-adv-x="1619" d="M74 907v160h213v-160q0 -10 4 -13t18 -3q13 0 17 3.5t4 12.5v197q0 9 -4 11.5t-17 2.5h-100v180h100q13 0 17 3.5t4 13.5v123q0 9 -4 12.5t-17 3.5q-14 0 -18 -3t-4 -13v-88h-213v88q0 66 8.5 102t37.5 57.5t70 27t119 5.5q82 0 126 -6t73 -27.5t38 -56.5t9 -98v-111 q0 -97 -70 -121q70 -27 70 -151v-156q0 -64 -9 -99.5t-38 -57t-73 -27.5t-126 -6q-52 0 -85 2.5t-61.5 10t-43.5 20t-26.5 35t-15 52t-3.5 74.5zM330 0l698 1618h221l-700 -1618h-219zM1026 236v663h201v-493h43v356h229v-356h55v-170h-55v-236h-229v236h-244z" />
<glyph unicode="&#xbf;" horiz-adv-x="841" d="M51 319v164q0 92 14.5 144t59.5 125l149 247q16 24 21.5 44t5.5 55v133h281v-172q0 -98 -13 -153.5t-55 -121.5l-100 -155q-29 -42 -29 -101v-209q0 -27 7 -36t32 -9t32 9t7 36v205h323v-205q0 -77 -6 -129t-23 -91.5t-41 -61.5t-68 -35.5t-94.5 -17.5t-129.5 -4 q-82 0 -134.5 4t-98 17.5t-69.5 35.5t-42 61.5t-23.5 91t-5.5 129.5zM287 1329v289h299v-289h-299z" />
<glyph unicode="&#xc0;" horiz-adv-x="870" d="M70 0v1298q0 77 6 129t23 91.5t41 61.5t68 36t95 18t131 4t131 -4t96 -17.5t69.5 -36t42.5 -62t24 -91.5t6 -129v-1298h-334v322h-78v-322h-321zM162 2040h315l107 -352h-222zM391 594h78v704q0 27 -7 36t-32 9t-32 -9t-7 -36v-704z" />
<glyph unicode="&#xc1;" horiz-adv-x="870" d="M70 0v1298q0 77 6 129t23 91.5t41 61.5t68 36t95 18t131 4t131 -4t96 -17.5t69.5 -36t42.5 -62t24 -91.5t6 -129v-1298h-334v322h-78v-322h-321zM285 1688l106 352h316l-201 -352h-221zM391 594h78v704q0 27 -7 36t-32 9t-32 -9t-7 -36v-704z" />
<glyph unicode="&#xc2;" horiz-adv-x="870" d="M70 0v1298q0 77 6 129t23 91.5t41 61.5t68 36t95 18t131 4t131 -4t96 -17.5t69.5 -36t42.5 -62t24 -91.5t6 -129v-1298h-334v322h-78v-322h-321zM109 1688l202 352h248l203 -352h-201l-125 190l-127 -190h-200zM391 594h78v704q0 27 -7 36t-32 9t-32 -9t-7 -36v-704z" />
<glyph unicode="&#xc3;" horiz-adv-x="870" d="M70 0v1298q0 77 6 129t23 91.5t41 61.5t68 36t95 18t131 4t131 -4t96 -17.5t69.5 -36t42.5 -62t24 -91.5t6 -129v-1298h-334v322h-78v-322h-321zM106 1774v202q59 52 150 52q63 0 176.5 -33t179.5 -33q100 0 152 74v-199q-53 -59 -156 -59q-63 0 -176.5 34.5t-179.5 34.5 q-96 0 -146 -73zM391 594h78v704q0 27 -7 36t-32 9t-32 -9t-7 -36v-704z" />
<glyph unicode="&#xc4;" horiz-adv-x="870" d="M70 0v1298q0 77 6 129t23 91.5t41 61.5t68 36t95 18t131 4t131 -4t96 -17.5t69.5 -36t42.5 -62t24 -91.5t6 -129v-1298h-334v322h-78v-322h-321zM86 1796v213h291v-213h-291zM391 594h78v704q0 27 -7 36t-32 9t-32 -9t-7 -36v-704zM492 1796v213h292v-213h-292z" />
<glyph unicode="&#xc5;" horiz-adv-x="870" d="M70 0v1298q0 77 6 129t23 91.5t41 61.5t68 36t95 18t131 4t131 -4t96 -17.5t69.5 -36t42.5 -62t24 -91.5t6 -129v-1298h-334v322h-78v-322h-321zM262 1806v95q0 90 32 114.5t140 24.5q110 0 142 -24.5t32 -114.5v-95q0 -90 -32 -114.5t-142 -24.5q-108 0 -140 24.5 t-32 114.5zM358 1812q0 -31 13.5 -39t62.5 -8t63.5 8t14.5 39v82q0 31 -14.5 39.5t-63.5 8.5q-48 0 -62 -8t-14 -40v-82zM391 594h78v704q0 27 -7 36t-32 9t-32 -9t-7 -36v-704z" />
<glyph unicode="&#xc6;" horiz-adv-x="1050" d="M70 0v1288q0 78 5.5 129.5t23.5 89.5t41 59t68.5 33t94.5 15.5t131 3.5h533v-272h-174v-119h165v-262h-165v-680h176v-285h-500v322h-78v-322h-321zM391 594h78v752h-39q-25 0 -32 -9t-7 -37v-706z" />
<glyph unicode="&#xc7;" horiz-adv-x="858" d="M66 322v976q0 78 5.5 129.5t22.5 91.5t41 61.5t69 35.5t97.5 18t134.5 4q78 0 128 -4t93.5 -18t67.5 -36t41 -61.5t23 -91.5t6 -129v-366h-320v366q0 27 -7 36t-32 9t-32 -9t-7 -36v-976q0 -28 7 -37t32 -9t32 9t7 37v374h320v-374q0 -78 -6 -130.5t-23 -92t-41 -61.5 t-67.5 -36t-93.5 -18t-128 -4q-82 0 -134.5 4t-97.5 18t-69 36t-41 62t-22.5 92t-5.5 130zM193 -379l88 338h292l-180 -338h-200z" />
<glyph unicode="&#xc8;" horiz-adv-x="630" d="M63 2040h316l106 -352h-221zM82 0v1618h508v-272h-176v-119h168v-262h-168v-680h178v-285h-510z" />
<glyph unicode="&#xc9;" horiz-adv-x="630" d="M82 0v1618h508v-272h-176v-119h168v-262h-168v-680h178v-285h-510zM186 1688l107 352h315l-200 -352h-222z" />
<glyph unicode="&#xca;" horiz-adv-x="630" d="M10 1688l203 352h248l203 -352h-201l-125 190l-127 -190h-201zM82 0v1618h508v-272h-176v-119h168v-262h-168v-680h178v-285h-510z" />
<glyph unicode="&#xcb;" horiz-adv-x="630" d="M-12 1796v213h291v-213h-291zM82 0v1618h508v-272h-176v-119h168v-262h-168v-680h178v-285h-510zM393 1796v213h293v-213h-293z" />
<glyph unicode="&#xcc;" horiz-adv-x="503" d="M-20 2040h315l106 -352h-221zM86 0v1618h332v-1618h-332z" />
<glyph unicode="&#xcd;" horiz-adv-x="503" d="M86 0v1618h332v-1618h-332zM102 1688l107 352h315l-200 -352h-222z" />
<glyph unicode="&#xce;" horiz-adv-x="503" d="M-74 1688l203 352h248l203 -352h-201l-125 190l-127 -190h-201zM86 0v1618h332v-1618h-332z" />
<glyph unicode="&#xcf;" horiz-adv-x="503" d="M-96 1796v213h291v-213h-291zM86 0v1618h332v-1618h-332zM309 1796v213h293v-213h-293z" />
<glyph unicode="&#xd0;" horiz-adv-x="952" d="M82 965v262h61v391h373q82 0 134.5 -4t97.5 -17.5t69 -35t41.5 -60t23 -88.5t5.5 -125v-956q0 -75 -5.5 -125t-23 -89t-41.5 -60.5t-69 -35.5t-97.5 -18t-134.5 -4h-373v965h-61zM467 287h59q25 0 32 9t7 36v956q0 27 -7 36t-32 9h-59v-106h51v-262h-51v-678z" />
<glyph unicode="&#xd1;" horiz-adv-x="942" d="M82 0v1618h356l137 -819h9v819h276v-1618h-344l-151 780h-9v-780h-274zM141 1774v202q59 52 150 52q63 0 176.5 -33t179.5 -33q100 0 152 74v-199q-53 -59 -156 -59q-63 0 -176.5 34.5t-179.5 34.5q-96 0 -146 -73z" />
<glyph unicode="&#xd2;" d="M66 322v976q0 78 5.5 129.5t22.5 91.5t41 61.5t69 35.5t97.5 18t134.5 4t134.5 -4t98 -18t69.5 -36t41.5 -61.5t23.5 -91t6 -129.5v-976q0 -78 -6 -130t-23.5 -92t-41.5 -62t-69.5 -36t-98 -18t-134.5 -4t-134.5 4t-97.5 18t-69 36t-41 62t-22.5 92t-5.5 130zM164 2040 h315l107 -352h-221zM397 322q0 -28 7 -37t32 -9t32 9t7 37v976q0 27 -7 36t-32 9t-32 -9t-7 -36v-976z" />
<glyph unicode="&#xd3;" d="M66 322v976q0 78 5.5 129.5t22.5 91.5t41 61.5t69 35.5t97.5 18t134.5 4t134.5 -4t98 -18t69.5 -36t41.5 -61.5t23.5 -91t6 -129.5v-976q0 -78 -6 -130t-23.5 -92t-41.5 -62t-69.5 -36t-98 -18t-134.5 -4t-134.5 4t-97.5 18t-69 36t-41 62t-22.5 92t-5.5 130zM287 1688 l106 352h316l-201 -352h-221zM397 322q0 -28 7 -37t32 -9t32 9t7 37v976q0 27 -7 36t-32 9t-32 -9t-7 -36v-976z" />
<glyph unicode="&#xd4;" d="M66 322v976q0 78 5.5 129.5t22.5 91.5t41 61.5t69 35.5t97.5 18t134.5 4t134.5 -4t98 -18t69.5 -36t41.5 -61.5t23.5 -91t6 -129.5v-976q0 -78 -6 -130t-23.5 -92t-41.5 -62t-69.5 -36t-98 -18t-134.5 -4t-134.5 4t-97.5 18t-69 36t-41 62t-22.5 92t-5.5 130zM109 1688 l202 352h248l203 -352h-201l-125 190l-127 -190h-200zM397 322q0 -28 7 -37t32 -9t32 9t7 37v976q0 27 -7 36t-32 9t-32 -9t-7 -36v-976z" />
<glyph unicode="&#xd5;" d="M66 322v976q0 78 5.5 129.5t22.5 91.5t41 61.5t69 35.5t97.5 18t134.5 4t134.5 -4t98 -18t69.5 -36t41.5 -61.5t23.5 -91t6 -129.5v-976q0 -78 -6 -130t-23.5 -92t-41.5 -62t-69.5 -36t-98 -18t-134.5 -4t-134.5 4t-97.5 18t-69 36t-41 62t-22.5 92t-5.5 130zM106 1774 v202q59 52 150 52q63 0 176.5 -33t179.5 -33q100 0 152 74v-199q-53 -59 -156 -59q-63 0 -176.5 34.5t-179.5 34.5q-96 0 -146 -73zM397 322q0 -28 7 -37t32 -9t32 9t7 37v976q0 27 -7 36t-32 9t-32 -9t-7 -36v-976z" />
<glyph unicode="&#xd6;" d="M66 322v976q0 78 5.5 129.5t22.5 91.5t41 61.5t69 35.5t97.5 18t134.5 4t134.5 -4t98 -18t69.5 -36t41.5 -61.5t23.5 -91t6 -129.5v-976q0 -78 -6 -130t-23.5 -92t-41.5 -62t-69.5 -36t-98 -18t-134.5 -4t-134.5 4t-97.5 18t-69 36t-41 62t-22.5 92t-5.5 130zM86 1796 v213h291v-213h-291zM397 322q0 -28 7 -37t32 -9t32 9t7 37v976q0 27 -7 36t-32 9t-32 -9t-7 -36v-976zM492 1796v213h292v-213h-292z" />
<glyph unicode="&#xd7;" horiz-adv-x="1083" d="M125 584l235 235l-233 234l182 182l234 -234l233 234l182 -182l-233 -234l233 -235l-182 -183l-233 236l-236 -236z" />
<glyph unicode="&#xd8;" d="M66 -141l55 194q-31 37 -43 100t-12 169v976q0 78 5.5 129.5t22.5 91.5t41 61.5t69 35.5t97.5 18t134.5 4q78 0 137 -6l37 129h199l-57 -194q57 -68 57 -269v-976q0 -78 -6 -130t-23.5 -92t-41.5 -62t-69.5 -36t-98 -18t-134.5 -4q-76 0 -135 6l-37 -127h-198zM387 301 q0 -26 11 -35.5t38 -9.5t38 9.5t11 35.5v371l-98 -340v-31zM387 948l98 340v31q0 24 -11 33.5t-38 9.5t-38 -9.5t-11 -33.5v-371z" />
<glyph unicode="&#xd9;" horiz-adv-x="878" d="M74 322v1296h332v-1296q0 -28 6.5 -37t31.5 -9t32 9t7 37v1296h324v-1296q0 -78 -6 -130.5t-23.5 -92t-42 -61.5t-69 -36t-95.5 -18t-131 -4t-131 4t-95.5 18t-68.5 36t-41.5 62t-23.5 92t-6 130zM166 2040h315l107 -352h-221z" />
<glyph unicode="&#xda;" horiz-adv-x="878" d="M74 322v1296h332v-1296q0 -28 6.5 -37t31.5 -9t32 9t7 37v1296h324v-1296q0 -78 -6 -130.5t-23.5 -92t-42 -61.5t-69 -36t-95.5 -18t-131 -4t-131 4t-95.5 18t-68.5 36t-41.5 62t-23.5 92t-6 130zM289 1688l106 352h316l-201 -352h-221z" />
<glyph unicode="&#xdb;" horiz-adv-x="878" d="M74 322v1296h332v-1296q0 -28 6.5 -37t31.5 -9t32 9t7 37v1296h324v-1296q0 -78 -6 -130.5t-23.5 -92t-42 -61.5t-69 -36t-95.5 -18t-131 -4t-131 4t-95.5 18t-68.5 36t-41.5 62t-23.5 92t-6 130zM113 1688l202 352h248l203 -352h-201l-125 190l-127 -190h-200z" />
<glyph unicode="&#xdc;" horiz-adv-x="878" d="M74 322v1296h332v-1296q0 -28 6.5 -37t31.5 -9t32 9t7 37v1296h324v-1296q0 -78 -6 -130.5t-23.5 -92t-42 -61.5t-69 -36t-95.5 -18t-131 -4t-131 4t-95.5 18t-68.5 36t-41.5 62t-23.5 92t-6 130zM90 1796v213h291v-213h-291zM496 1796v213h292v-213h-292z" />
<glyph unicode="&#xdd;" horiz-adv-x="790" d="M4 1618h330l57 -660h8l66 660h321l-229 -1098v-520h-334v520zM246 1688l106 352h316l-201 -352h-221z" />
<glyph unicode="&#xde;" horiz-adv-x="864" d="M82 0v1618h332v-236h39q82 0 134.5 -4t97.5 -17.5t69.5 -34.5t42 -59.5t23 -88.5t5.5 -125v-346q0 -75 -5.5 -125t-23 -88.5t-42 -60t-69.5 -35t-97.5 -17.5t-134.5 -4h-39v-377h-332zM414 645h39q25 0 32 9t7 36v363q0 27 -7 36t-32 9h-39v-453z" />
<glyph unicode="&#xdf;" horiz-adv-x="858" d="M70 0v1370q0 70 17 120t44 78.5t72.5 44.5t90 20.5t109.5 4.5q52 0 90 -2t79 -9t69.5 -19t55 -32t42.5 -48t25.5 -67.5t9.5 -90.5v-266q0 -198 -129 -221v-9q26 -6 47 -16t41.5 -30t34.5 -49t22.5 -75t8.5 -106v-266q0 -71 -5.5 -120t-20 -87.5t-36.5 -61.5t-60 -37.5 t-85.5 -20t-116.5 -5.5h-74v297h35q17 0 29 9t12 26v350q0 25 -12 35t-39 10h-37v301h12q27 0 39.5 10t12.5 35v275q0 27 -8.5 36t-34.5 9t-35.5 -9.5t-9.5 -35.5v-1348h-295z" />
<glyph unicode="&#xe0;" horiz-adv-x="765" d="M66 217v297q0 113 45 163t155 50h58q57 0 84 -6v233q0 27 -7 36t-32 9q-24 0 -30.5 -9t-6.5 -36v-112h-266v145q0 59 5 99t19 70t34 47t57 27.5t79 13.5t109 3q72 0 117.5 -3t85 -13.5t60 -27.5t35.5 -47.5t20 -69.5t5 -99v-987q-64 -20 -366 -20q-83 0 -128.5 7.5 t-77.5 33.5t-43 71.5t-11 124.5zM111 1649h315l106 -353h-221zM332 266q0 -27 6.5 -36t30.5 -9q27 0 39 4v293q-20 4 -39 4q-24 0 -30.5 -9t-6.5 -36v-211z" />
<glyph unicode="&#xe1;" horiz-adv-x="765" d="M66 217v297q0 113 45 163t155 50h58q57 0 84 -6v233q0 27 -7 36t-32 9q-24 0 -30.5 -9t-6.5 -36v-112h-266v145q0 59 5 99t19 70t34 47t57 27.5t79 13.5t109 3q72 0 117.5 -3t85 -13.5t60 -27.5t35.5 -47.5t20 -69.5t5 -99v-987q-64 -20 -366 -20q-83 0 -128.5 7.5 t-77.5 33.5t-43 71.5t-11 124.5zM233 1296l107 353h315l-200 -353h-222zM332 266q0 -27 6.5 -36t30.5 -9q27 0 39 4v293q-20 4 -39 4q-24 0 -30.5 -9t-6.5 -36v-211z" />
<glyph unicode="&#xe2;" horiz-adv-x="765" d="M55 1296l203 353h248l203 -353h-201l-125 191l-127 -191h-201zM66 217v297q0 113 45 163t155 50h58q57 0 84 -6v233q0 27 -7 36t-32 9q-24 0 -30.5 -9t-6.5 -36v-112h-266v145q0 59 5 99t19 70t34 47t57 27.5t79 13.5t109 3q72 0 117.5 -3t85 -13.5t60 -27.5t35.5 -47.5 t20 -69.5t5 -99v-987q-64 -20 -366 -20q-83 0 -128.5 7.5t-77.5 33.5t-43 71.5t-11 124.5zM332 266q0 -27 6.5 -36t30.5 -9q27 0 39 4v293q-20 4 -39 4q-24 0 -30.5 -9t-6.5 -36v-211z" />
<glyph unicode="&#xe3;" horiz-adv-x="765" d="M55 1382v203q58 51 150 51q63 0 176.5 -32.5t179.5 -32.5q100 0 152 74v-199q-54 -60 -156 -60q-63 0 -176.5 35t-179.5 35q-54 0 -87.5 -18.5t-58.5 -55.5zM66 217v297q0 113 45 163t155 50h58q57 0 84 -6v233q0 27 -7 36t-32 9q-24 0 -30.5 -9t-6.5 -36v-112h-266v145 q0 59 5 99t19 70t34 47t57 27.5t79 13.5t109 3q72 0 117.5 -3t85 -13.5t60 -27.5t35.5 -47.5t20 -69.5t5 -99v-987q-64 -20 -366 -20q-83 0 -128.5 7.5t-77.5 33.5t-43 71.5t-11 124.5zM332 266q0 -27 6.5 -36t30.5 -9q27 0 39 4v293q-20 4 -39 4q-24 0 -30.5 -9t-6.5 -36 v-211z" />
<glyph unicode="&#xe4;" horiz-adv-x="765" d="M35 1405v213h291v-213h-291zM66 217v297q0 113 45 163t155 50h58q57 0 84 -6v233q0 27 -7 36t-32 9q-24 0 -30.5 -9t-6.5 -36v-112h-266v145q0 59 5 99t19 70t34 47t57 27.5t79 13.5t109 3q72 0 117.5 -3t85 -13.5t60 -27.5t35.5 -47.5t20 -69.5t5 -99v-987 q-64 -20 -366 -20q-83 0 -128.5 7.5t-77.5 33.5t-43 71.5t-11 124.5zM332 266q0 -27 6.5 -36t30.5 -9q27 0 39 4v293q-20 4 -39 4q-24 0 -30.5 -9t-6.5 -36v-211zM440 1405v213h293v-213h-293z" />
<glyph unicode="&#xe5;" horiz-adv-x="765" d="M66 217v297q0 113 45 163t155 50h58q57 0 84 -6v233q0 27 -7 36t-32 9q-24 0 -30.5 -9t-6.5 -36v-112h-266v145q0 59 5 99t19 70t34 47t57 27.5t79 13.5t109 3q72 0 117.5 -3t85 -13.5t60 -27.5t35.5 -47.5t20 -69.5t5 -99v-987q-64 -20 -366 -20q-83 0 -128.5 7.5 t-77.5 33.5t-43 71.5t-11 124.5zM209 1415v94q0 91 32 115.5t140 24.5q109 0 141.5 -24.5t32.5 -115.5v-94q0 -90 -32 -114.5t-142 -24.5q-108 0 -140 24.5t-32 114.5zM305 1421q0 -31 13.5 -39t62.5 -8t63.5 8t14.5 39v82q0 31 -14.5 39t-63.5 8t-62.5 -8t-13.5 -39v-82z M332 266q0 -27 6.5 -36t30.5 -9q27 0 39 4v293q-20 4 -39 4q-24 0 -30.5 -9t-6.5 -36v-211z" />
<glyph unicode="&#xe6;" horiz-adv-x="1101" d="M66 217v313q0 113 45 163t155 50q102 0 142 -14v225q0 27 -7 36t-32 9q-24 0 -30.5 -9t-6.5 -36v-112h-266v145q0 59 5 99t19 70t34 47t57 27.5t79 13.5t109 3q63 0 103.5 -10t54 -21t22.5 -28q31 59 182 59q67 0 110 -3t80 -13.5t57 -27.5t34 -47t19 -70t5 -99v-469 h-344v-260q2 -17 9.5 -23t29.5 -6q25 0 32 9t7 36v144h266v-178q0 -59 -5 -99t-19 -70t-34 -47t-57 -27.5t-80 -13.5t-110 -3q-153 0 -182 59q-16 -30 -58 -44.5t-155 -14.5q-87 0 -134 7.5t-80.5 33.5t-44.5 71t-11 125zM332 266q0 -27 6.5 -36t30.5 -9q25 0 32 9t7 36v254 q-20 4 -39 4q-24 0 -30.5 -9t-6.5 -36v-213zM692 743h78v203q0 27 -7 36t-32 9t-32 -9t-7 -36v-203z" />
<glyph unicode="&#xe7;" horiz-adv-x="753" d="M66 240v747q0 60 5 99t20 69.5t35.5 47.5t59.5 27.5t84.5 13.5t116.5 3q67 0 110 -3t80 -13.5t57 -27.5t34 -47t19 -70t5 -99v-215h-266v158q0 27 -7 36t-32 9q-24 0 -30.5 -9t-6.5 -36v-633q0 -27 6.5 -36t30.5 -9q25 0 32 9t7 36v281h266v-338q0 -59 -5 -99t-19 -70 t-34 -47t-57 -27.5t-80 -13.5t-110 -3q-71 0 -116.5 3t-84.5 13.5t-59.5 27.5t-35.5 47.5t-20 69.5t-5 99zM139 -379l88 338h293l-180 -338h-201z" />
<glyph unicode="&#xe8;" horiz-adv-x="757" d="M66 240v747q0 60 5 99t20 69.5t35.5 47.5t59.5 27.5t84.5 13.5t116.5 3q67 0 110 -3t80 -13.5t57 -27.5t34 -47t19 -70t5 -99v-469h-342v-244q0 -27 6.5 -36t30.5 -9q25 0 32 9t7 36v144h266v-178q0 -59 -5 -99t-19 -70t-34 -47t-57 -27.5t-80 -13.5t-110 -3 q-71 0 -116.5 3t-84.5 13.5t-59.5 27.5t-35.5 47.5t-20 69.5t-5 99zM106 1649h316l106 -353h-221zM350 743h76v203q0 27 -7 36t-32 9q-24 0 -30.5 -9t-6.5 -36v-203z" />
<glyph unicode="&#xe9;" horiz-adv-x="757" d="M66 240v747q0 60 5 99t20 69.5t35.5 47.5t59.5 27.5t84.5 13.5t116.5 3q67 0 110 -3t80 -13.5t57 -27.5t34 -47t19 -70t5 -99v-469h-342v-244q0 -27 6.5 -36t30.5 -9q25 0 32 9t7 36v144h266v-178q0 -59 -5 -99t-19 -70t-34 -47t-57 -27.5t-80 -13.5t-110 -3 q-71 0 -116.5 3t-84.5 13.5t-59.5 27.5t-35.5 47.5t-20 69.5t-5 99zM229 1296l107 353h315l-200 -353h-222zM350 743h76v203q0 27 -7 36t-32 9q-24 0 -30.5 -9t-6.5 -36v-203z" />
<glyph unicode="&#xea;" horiz-adv-x="757" d="M51 1296l203 353h248l203 -353h-201l-125 191l-127 -191h-201zM66 240v747q0 60 5 99t20 69.5t35.5 47.5t59.5 27.5t84.5 13.5t116.5 3q67 0 110 -3t80 -13.5t57 -27.5t34 -47t19 -70t5 -99v-469h-342v-244q0 -27 6.5 -36t30.5 -9q25 0 32 9t7 36v144h266v-178 q0 -59 -5 -99t-19 -70t-34 -47t-57 -27.5t-80 -13.5t-110 -3q-71 0 -116.5 3t-84.5 13.5t-59.5 27.5t-35.5 47.5t-20 69.5t-5 99zM350 743h76v203q0 27 -7 36t-32 9q-24 0 -30.5 -9t-6.5 -36v-203z" />
<glyph unicode="&#xeb;" horiz-adv-x="757" d="M31 1405v213h291v-213h-291zM66 240v747q0 60 5 99t20 69.5t35.5 47.5t59.5 27.5t84.5 13.5t116.5 3q67 0 110 -3t80 -13.5t57 -27.5t34 -47t19 -70t5 -99v-469h-342v-244q0 -27 6.5 -36t30.5 -9q25 0 32 9t7 36v144h266v-178q0 -59 -5 -99t-19 -70t-34 -47t-57 -27.5 t-80 -13.5t-110 -3q-71 0 -116.5 3t-84.5 13.5t-59.5 27.5t-35.5 47.5t-20 69.5t-5 99zM350 743h76v203q0 27 -7 36t-32 9q-24 0 -30.5 -9t-6.5 -36v-203zM436 1405v213h293v-213h-293z" />
<glyph unicode="&#xec;" horiz-adv-x="493" d="M-10 1649h315l107 -353h-222zM117 0v1227h291v-1227h-291z" />
<glyph unicode="&#xed;" horiz-adv-x="512" d="M82 1296l106 353h316l-201 -353h-221zM86 0v1227h291v-1227h-291z" />
<glyph unicode="&#xee;" horiz-adv-x="604" d="M-25 1296l203 353h248l203 -353h-201l-125 191l-127 -191h-201zM156 0v1227h290v-1227h-290z" />
<glyph unicode="&#xef;" horiz-adv-x="669" d="M-14 1405v213h290v-213h-290zM188 0v1227h291v-1227h-291zM391 1405v213h293v-213h-293z" />
<glyph unicode="&#xf0;" horiz-adv-x="780" d="M66 1618h331l70 -141l117 61l55 -111l-119 -61l152 -305q43 -84 43 -199v-622q0 -59 -5 -99t-20.5 -70t-36.5 -47t-60.5 -27.5t-85 -13.5t-116.5 -3t-116.5 3t-84.5 13.5t-59.5 27.5t-35.5 47.5t-20 69.5t-5 99v616q0 142 52.5 192t199.5 50l-68 133l-119 -62l-55 111 l121 61zM354 297q0 -27 6.5 -36t30.5 -9q25 0 32 9t7 36v545q-10 30 -39 30q-24 0 -30.5 -8.5t-6.5 -34.5v-532z" />
<glyph unicode="&#xf1;" horiz-adv-x="821" d="M82 0v1227h272v-56q44 66 176 66q126 0 172 -53.5t46 -196.5v-987h-295v930q0 27 -7 36t-32 9q-26 0 -39 -29v-946h-293zM82 1382v203q58 51 149 51q63 0 177 -32.5t180 -32.5q99 0 151 74v-199q-54 -60 -155 -60q-63 0 -177 35t-180 35q-54 0 -87 -18.5t-58 -55.5z" />
<glyph unicode="&#xf2;" horiz-adv-x="776" d="M66 240v747q0 59 5 99t20 70t36 47t60 27.5t84 13.5t116 3t116.5 -3t85 -13.5t60.5 -27.5t36.5 -47t20.5 -70t5 -99v-747q0 -59 -5 -99t-20.5 -70t-36.5 -47t-60.5 -27.5t-85 -13.5t-116.5 -3t-116 3t-84 13.5t-60 27.5t-36 47t-20 70t-5 99zM115 1649h315l107 -353h-222 zM350 297q0 -27 6.5 -36t30.5 -9q25 0 32 9t7 36v633q0 27 -7 36t-32 9q-24 0 -30.5 -9t-6.5 -36v-633z" />
<glyph unicode="&#xf3;" horiz-adv-x="776" d="M66 240v747q0 59 5 99t20 70t36 47t60 27.5t84 13.5t116 3t116.5 -3t85 -13.5t60.5 -27.5t36.5 -47t20.5 -70t5 -99v-747q0 -59 -5 -99t-20.5 -70t-36.5 -47t-60.5 -27.5t-85 -13.5t-116.5 -3t-116 3t-84 13.5t-60 27.5t-36 47t-20 70t-5 99zM238 1296l106 353h315 l-200 -353h-221zM350 297q0 -27 6.5 -36t30.5 -9q25 0 32 9t7 36v633q0 27 -7 36t-32 9q-24 0 -30.5 -9t-6.5 -36v-633z" />
<glyph unicode="&#xf4;" horiz-adv-x="776" d="M61 1296l203 353h248l203 -353h-201l-125 191l-127 -191h-201zM66 240v747q0 59 5 99t20 70t36 47t60 27.5t84 13.5t116 3t116.5 -3t85 -13.5t60.5 -27.5t36.5 -47t20.5 -70t5 -99v-747q0 -59 -5 -99t-20.5 -70t-36.5 -47t-60.5 -27.5t-85 -13.5t-116.5 -3t-116 3 t-84 13.5t-60 27.5t-36 47t-20 70t-5 99zM350 297q0 -27 6.5 -36t30.5 -9q25 0 32 9t7 36v633q0 27 -7 36t-32 9q-24 0 -30.5 -9t-6.5 -36v-633z" />
<glyph unicode="&#xf5;" horiz-adv-x="776" d="M59 1382v203q58 51 150 51q63 0 176.5 -32.5t179.5 -32.5q100 0 152 74v-199q-54 -60 -156 -60q-63 0 -176.5 35t-179.5 35q-54 0 -87.5 -18.5t-58.5 -55.5zM66 240v747q0 59 5 99t20 70t36 47t60 27.5t84 13.5t116 3t116.5 -3t85 -13.5t60.5 -27.5t36.5 -47t20.5 -70 t5 -99v-747q0 -59 -5 -99t-20.5 -70t-36.5 -47t-60.5 -27.5t-85 -13.5t-116.5 -3t-116 3t-84 13.5t-60 27.5t-36 47t-20 70t-5 99zM350 297q0 -27 6.5 -36t30.5 -9q25 0 32 9t7 36v633q0 27 -7 36t-32 9q-24 0 -30.5 -9t-6.5 -36v-633z" />
<glyph unicode="&#xf6;" horiz-adv-x="776" d="M39 1405v213h291v-213h-291zM66 240v747q0 59 5 99t20 70t36 47t60 27.5t84 13.5t116 3t116.5 -3t85 -13.5t60.5 -27.5t36.5 -47t20.5 -70t5 -99v-747q0 -59 -5 -99t-20.5 -70t-36.5 -47t-60.5 -27.5t-85 -13.5t-116.5 -3t-116 3t-84 13.5t-60 27.5t-36 47t-20 70t-5 99z M350 297q0 -27 6.5 -36t30.5 -9q25 0 32 9t7 36v633q0 27 -7 36t-32 9q-24 0 -30.5 -9t-6.5 -36v-633zM444 1405v213h293v-213h-293z" />
<glyph unicode="&#xf7;" horiz-adv-x="1083" d="M82 690v258h919v-258h-919zM393 199v288h297v-288h-297zM393 1153v289h297v-289h-297z" />
<glyph unicode="&#xf8;" horiz-adv-x="776" d="M66 -141l51 174q-28 27 -39.5 75t-11.5 132v747q0 59 5 99t20 70t36 47t60 27.5t84 13.5t116 3q17 0 46 -1t42 -1l37 123h199l-54 -174q30 -28 42 -76.5t12 -130.5v-747q0 -59 -5 -99t-20.5 -70t-36.5 -47t-60.5 -27.5t-85 -13.5t-116.5 -3q-16 0 -44.5 1t-41.5 1 l-37 -123h-198zM344 760l74 252q-16 4 -31 4q-29 0 -36 -8.5t-7 -36.5v-211zM358 213q6 -2 29 -2q31 0 38 8.5t7 36.5v211z" />
<glyph unicode="&#xf9;" horiz-adv-x="821" d="M74 240v987h293v-930q0 -27 7 -36t32 -9t38 29v946h295v-1227h-272v55q-46 -65 -176 -65q-125 0 -171 53.5t-46 196.5zM137 1649h316l106 -353h-221z" />
<glyph unicode="&#xfa;" horiz-adv-x="821" d="M74 240v987h293v-930q0 -27 7 -36t32 -9t38 29v946h295v-1227h-272v55q-46 -65 -176 -65q-125 0 -171 53.5t-46 196.5zM260 1296l107 353h315l-201 -353h-221z" />
<glyph unicode="&#xfb;" horiz-adv-x="821" d="M74 240v987h293v-930q0 -27 7 -36t32 -9t38 29v946h295v-1227h-272v55q-46 -65 -176 -65q-125 0 -171 53.5t-46 196.5zM84 1296l203 353h248l202 -353h-200l-125 191l-127 -191h-201z" />
<glyph unicode="&#xfc;" horiz-adv-x="821" d="M61 1405v213h291v-213h-291zM74 240v987h293v-930q0 -27 7 -36t32 -9t38 29v946h295v-1227h-272v55q-46 -65 -176 -65q-125 0 -171 53.5t-46 196.5zM467 1405v213h293v-213h-293z" />
<glyph unicode="&#xfd;" horiz-adv-x="821" d="M74 303v924h293v-867q0 -27 7 -36t32 -9t38 29v883h295v-1247q0 -151 -75.5 -222t-243.5 -71h-311v243h272q30 0 41.5 11.5t11.5 38.5v139q-46 -66 -166 -66t-157 51.5t-37 198.5zM260 1296l107 353h315l-201 -353h-221z" />
<glyph unicode="&#xfe;" horiz-adv-x="792" d="M82 -313v1931h293v-447q46 66 160 66q62 0 99 -11.5t58 -43t28 -75.5t7 -120v-747q0 -61 -4.5 -99.5t-16 -70t-33.5 -48t-55 -24.5t-83 -8q-114 0 -160 65v-368h-293zM367 281q10 -29 36 -29q25 0 32 9t7 36v633q0 27 -7 36t-32 9q-26 0 -36 -29v-665z" />
<glyph unicode="&#xff;" horiz-adv-x="821" d="M61 1405v213h291v-213h-291zM74 303v924h293v-867q0 -27 7 -36t32 -9t38 29v883h295v-1247q0 -151 -75.5 -222t-243.5 -71h-311v243h272q30 0 41.5 11.5t11.5 38.5v139q-46 -66 -166 -66t-157 51.5t-37 198.5zM467 1405v213h293v-213h-293z" />
<glyph unicode="&#x152;" horiz-adv-x="1056" d="M66 332v956q0 75 5.5 125t22.5 88.5t41 60t69 35t97.5 17.5t134.5 4h537v-272h-174v-119h166v-262h-166v-680h176v-285h-539q-82 0 -134.5 4t-97 18t-69 35.5t-41.5 60.5t-22.5 89t-5.5 125zM397 332q0 -27 7 -36t32 -9h39v1046h-39q-25 0 -32 -9t-7 -36v-956z" />
<glyph unicode="&#x153;" horiz-adv-x="1118" d="M66 240v747q0 59 5 99t20 70t36 47t60 27.5t84 13.5t116 3q79 0 124.5 -17t55.5 -40q25 57 183 57q67 0 110 -3t80 -13.5t57 -27.5t34 -47t19 -70t5 -99v-469h-344v-260q2 -17 9.5 -23t29.5 -6q25 0 31.5 8.5t6.5 36.5v144h267v-178q0 -59 -5 -99t-19 -70t-34 -47 t-57 -27.5t-80 -13.5t-110 -3q-80 0 -128 16.5t-59 42.5q-29 -59 -176 -59q-71 0 -116 3t-84 13.5t-60 27.5t-36 47t-20 70t-5 99zM350 297q0 -27 6.5 -36t30.5 -9q25 0 32 9t7 36v633q0 27 -7 36t-32 9q-24 0 -30.5 -9t-6.5 -36v-633zM711 743h77v203q0 28 -6.5 36.5 t-31.5 8.5q-22 0 -29.5 -6.5t-9.5 -23.5v-218z" />
<glyph unicode="&#x178;" horiz-adv-x="790" d="M4 1618h330l57 -660h8l66 660h321l-229 -1098v-520h-334v520zM47 1796v213h291v-213h-291zM453 1796v213h292v-213h-292z" />
<glyph unicode="&#x2c6;" horiz-adv-x="696" d="M20 1296l203 353h248l203 -353h-201l-125 191l-127 -191h-201z" />
<glyph unicode="&#x2dc;" horiz-adv-x="829" d="M86 1382v203q58 51 150 51q63 0 176.5 -32.5t179.5 -32.5q99 0 151 74v-199q-54 -60 -155 -60q-63 0 -177 35t-180 35q-54 0 -87 -18.5t-58 -55.5z" />
<glyph unicode="&#x2000;" horiz-adv-x="1020" />
<glyph unicode="&#x2001;" horiz-adv-x="2040" />
<glyph unicode="&#x2002;" horiz-adv-x="1020" />
<glyph unicode="&#x2003;" horiz-adv-x="2040" />
<glyph unicode="&#x2004;" horiz-adv-x="680" />
<glyph unicode="&#x2005;" horiz-adv-x="510" />
<glyph unicode="&#x2006;" horiz-adv-x="340" />
<glyph unicode="&#x2007;" horiz-adv-x="340" />
<glyph unicode="&#x2008;" horiz-adv-x="255" />
<glyph unicode="&#x2009;" horiz-adv-x="408" />
<glyph unicode="&#x200a;" horiz-adv-x="113" />
<glyph unicode="&#x2010;" horiz-adv-x="436" d="M35 553v258h366v-258h-366z" />
<glyph unicode="&#x2011;" horiz-adv-x="436" d="M35 553v258h366v-258h-366z" />
<glyph unicode="&#x2012;" horiz-adv-x="436" d="M35 553v258h366v-258h-366z" />
<glyph unicode="&#x2013;" horiz-adv-x="774" d="M35 553v258h704v-258h-704z" />
<glyph unicode="&#x2014;" horiz-adv-x="1288" d="M35 553v258h1218v-258h-1218z" />
<glyph unicode="&#x2018;" horiz-adv-x="460" d="M82 1303v280q0 127 61.5 189.5t212.5 62.5h23v-131h-35q-90 0 -90 -105v-8h125v-288h-297z" />
<glyph unicode="&#x2019;" horiz-adv-x="460" d="M82 1249v131h37q41 0 64.5 26.5t23.5 78.5v10h-125v289h297v-281q0 -127 -61.5 -190.5t-211.5 -63.5h-24z" />
<glyph unicode="&#x201a;" horiz-adv-x="460" d="M82 0v289h297v-281q0 -127 -61.5 -190.5t-211.5 -63.5h-24v131h37q41 0 64.5 26.5t23.5 78.5v10h-125z" />
<glyph unicode="&#x201c;" horiz-adv-x="921" d="M82 1303v280q0 127 61.5 189.5t212.5 62.5h23v-131h-35q-90 0 -90 -105v-8h125v-288h-297zM543 1303v280q0 127 61.5 189.5t212.5 62.5h23v-131h-35q-90 0 -90 -105v-8h125v-288h-297z" />
<glyph unicode="&#x201d;" horiz-adv-x="921" d="M82 1249v131h37q41 0 64.5 26.5t23.5 78.5v10h-125v289h297v-281q0 -127 -61.5 -190.5t-211.5 -63.5h-24zM543 1249v131h37q41 0 64.5 26.5t23.5 78.5v10h-125v289h297v-281q0 -127 -61.5 -190.5t-211.5 -63.5h-24z" />
<glyph unicode="&#x201e;" horiz-adv-x="921" d="M82 0v289h297v-281q0 -127 -61.5 -190.5t-211.5 -63.5h-24v131h37q41 0 64.5 26.5t23.5 78.5v10h-125zM543 0v289h297v-281q0 -127 -61.5 -190.5t-211.5 -63.5h-24v131h37q41 0 64.5 26.5t23.5 78.5v10h-125z" />
<glyph unicode="&#x2022;" horiz-adv-x="749" d="M70 848v70q0 73 9 118.5t27 76.5t56.5 45.5t85.5 20t127 5.5q68 0 111 -3t81 -13.5t57.5 -27.5t34 -48.5t19 -72t4.5 -101.5v-70q0 -74 -8.5 -119.5t-26 -77t-55.5 -46.5t-86.5 -21t-130.5 -6q-66 0 -108.5 3.5t-79.5 14.5t-57.5 28.5t-35 49t-19.5 72.5t-5 102z" />
<glyph unicode="&#x2026;" horiz-adv-x="1902" d="M86 0v289h297v-289h-297zM803 0v289h297v-289h-297zM1520 0v289h297v-289h-297z" />
<glyph unicode="&#x202f;" horiz-adv-x="408" />
<glyph unicode="&#x2039;" horiz-adv-x="493" d="M70 629v248l352 204v-202l-191 -125l191 -127v-201z" />
<glyph unicode="&#x203a;" horiz-adv-x="493" d="M72 426v201l190 127l-190 125v202l352 -204v-248z" />
<glyph unicode="&#x205f;" horiz-adv-x="510" />
<glyph unicode="&#x20ac;" horiz-adv-x="892" d="M39 565l20 164h56v158h-76l20 166h56v245q0 78 5.5 129.5t22.5 91.5t41 61.5t69 35.5t97.5 18t134.5 4q78 0 128 -4t93.5 -18t67.5 -36t41 -61.5t23 -91.5t6 -129v-98h-320v119q0 26 -7 34.5t-32 8.5t-32 -8.5t-7 -34.5v-266h353l-41 -166h-312v-158h275l-41 -164h-234 v-264q0 -27 7 -36t32 -9t32 9t7 36v121h320v-100q0 -78 -6 -130.5t-23 -92t-41 -61.5t-67.5 -36t-93.5 -18t-128 -4q-82 0 -134.5 4t-97.5 18t-69 36t-41 62t-22.5 92t-5.5 130v243h-76z" />
<glyph unicode="&#x2122;" horiz-adv-x="1298" d="M57 1479v139h420v-139h-102v-678h-215v678h-103zM563 801v817h289q37 -415 39 -444h8q10 152 43 444h287v-817h-168v502h-8l-66 -502h-180l-68 508h-8v-508h-168z" />
<glyph unicode="&#xfb01;" horiz-adv-x="991" d="M25 991v236h69v131q0 139 74 199.5t254 60.5h86v-217h-49q-38 0 -55 -16.5t-17 -51.5v-106h121v-236h-121v-991h-293v991h-69zM614 0v1227h291v-1227h-291zM614 1405v213h291v-213h-291z" />
<glyph unicode="&#xfb02;" horiz-adv-x="985" d="M25 991v236h69v131q0 139 74 199.5t254 60.5h86v-217h-49q-38 0 -55 -16.5t-17 -51.5v-106h121v-236h-121v-991h-293v991h-69zM610 0v1618h293v-1618h-293z" />
</font>
</defs>
</svg>
